<svg xmlns="http://www.w3.org/2000/svg" width="512" height="475.185"><path d="M 0,0 V -114.261 L -40.288,-153.785 0,-193.305 v -114.261 h -115.074 l -50.623,48.182 -4.928,-4.689 -45.696,-43.493 h -115.074 v 114.261 l 4.928,4.831 35.361,34.689 -40.289,39.524 V 0 h 115.074 L -165.697,-48.182 -115.074,0 Z" fill="#18A986" transform="matrix(1.54498 0 0 -1.54498 512 0)"/><path d="M 0,0 -40.288,-39.524 0,-79.044 V -99.476 L -40.288,-139 0,-178.521 v -14.784 h -115.074 l -50.623,48.181 -4.928,-4.688 -45.696,-43.493 h -115.074 v 14.784 l 4.928,4.832 35.361,34.689 -40.289,39.524 v 20.432 l 4.928,4.831 35.361,34.689 L -331.395,0 v 14.784 h 115.074 l 50.624,-48.182 50.623,48.182 H 0 Z" fill="#30D89B" transform="matrix(1.54498 0 0 -1.54498 512 176.531)"/><path d="m 0,0 v -108.566 h -115.074 l -50.623,48.181 -4.928,-4.688 -45.696,-43.493 H -331.395 V 0 h 115.074 L -165.697,-48.135 -115.074,0 Z" fill="#6EFFAF" transform="matrix(1.54498 0 0 -1.54498 512 307.451)"/></svg>